<?xml version="1.0" encoding="utf-8"?>
<!-- Generator: Adobe Illustrator 24.0.0, SVG Export Plug-In . SVG Version: 6.00 Build 0)  -->
<svg version="1.1" id="Layer_1" xmlns="http://www.w3.org/2000/svg" xmlns:xlink="http://www.w3.org/1999/xlink" x="0px" y="0px"
	 viewBox="0 0 379 115.9" style="enable-background:new 0 0 379 115.9;" xml:space="preserve">
<style type="text/css">
	.st0{fill:url(#SVGID_1_);}
	.st1{fill:#231E9A;}
	.st2{fill:#FFFFFF;}
</style>
<g>
	<g>
		<g>
			<path class="st1" d="M149.1,34.5c-5.6,0-10.2,4.6-10.2,10.2v61c0,5.6,4.6,10.2,10.2,10.2s10.2-4.6,10.2-10.2v-61
				C159.3,39,154.7,34.5,149.1,34.5L149.1,34.5z"/>
		</g>
		<g>
			<path class="st1" d="M149.1,0.2c-6.6,0-11.9,5.3-11.9,11.9c0,6.6,5.3,11.9,11.9,11.9c6.6,0,11.9-5.3,11.9-11.9
				S155.7,0.2,149.1,0.2L149.1,0.2z"/>
		</g>
	</g>
	<path class="st2" d="M261.5,89.3c-12,9.6-40.2,10-55.1-5c-7.1-7.1-11-16.5-11-26.5s3.9-19.4,11-26.5s16.5-11,26.5-11
		s19.4,3.9,26.5,11c4,4,10.4,4,14.4,0s4-10.4,0-14.4c-22.5-22.5-59.2-22.5-81.7,0s-22.5,59.2,0,81.7c11.3,11.3,25.6,17,40.3,17
		c14.4,0,29.3,0.1,42.3-10.9c2.9-2.5,6.8-5.8,11.3-9.6V68.3C275.8,77.2,267.1,84.9,261.5,89.3z"/>
	<path class="st2" d="M376.5,3.7c-3.7-4.3-10.1-4.7-14.3-1.1c-0.4,0.3-17.6,15.2-40.3,34.7V10.2c0-5.6-4.6-10.2-10.2-10.2
		s-10.2,4.6-10.2,10.2v44.6v26.8v23.9c0,5.6,4.6,10.2,10.2,10.2s10.2-4.6,10.2-10.2V64.1c27.3-23.5,53.2-45.8,53.6-46.2
		C379.7,14.4,380.1,8,376.5,3.7z"/>
	<g>
		<path class="st2" d="M19,5.5c-2.7-4.9-8.8-6.8-13.7-4.1s-6.8,8.8-4.1,13.7l51.4,95.4c1.8,3.3,5.2,5.3,8.9,5.3c3.7,0,7.1-2,8.9-5.3
			l2.6-4.8L19,5.5z"/>
		<path class="st2" d="M117.3,1.4c-4.9-2.7-11.1-0.8-13.7,4.1l-37,68.7l11.5,21.3l43.3-80.4C124.1,10.2,122.2,4.1,117.3,1.4z"/>
	</g>
	<path class="st2" d="M376.2,98.5l-33.3-38.4l-15.4,13.3l33.7,38.9c2,2.3,4.8,3.5,7.7,3.5c2.4,0,4.7-0.8,6.6-2.5
		C379.9,109.6,380,102.9,376.2,98.5z"/>
</g>
</svg>
