<?xml version="1.0" encoding="utf-8"?>
<!-- Generator: Adobe Illustrator 24.0.0, SVG Export Plug-In . SVG Version: 6.00 Build 0)  -->
<svg version="1.1" id="Layer_1" xmlns="http://www.w3.org/2000/svg" xmlns:xlink="http://www.w3.org/1999/xlink" x="0px" y="0px"
	 viewBox="0 0 812.3 191" style="enable-background:new 0 0 812.3 191;" xml:space="preserve">
<style type="text/css">
	.st0{fill:#7771ED;}
	.st1{fill:#EC702E;}
	.st2{fill:#FFFFFF;}
</style>
<g>
	<path class="st0" d="M105.1,60.7c-0.5-6.1-2.8-10.8-6.8-14.2c-4-3.4-10.1-5.1-18.3-5.1c-5.2,0-9.5,0.6-12.8,1.9
		c-3.3,1.2-5.7,2.9-7.3,5c-1.6,2.1-2.4,4.5-2.5,7.3c-0.1,2.2,0.3,4.3,1.2,6.1c1,1.8,2.5,3.4,4.5,4.8c2.1,1.4,4.7,2.7,7.9,3.8
		c3.2,1.1,7,2.2,11.5,3.1l15.3,3.3c10.3,2.2,19.1,5.1,26.5,8.6c7.3,3.6,13.3,7.8,18,12.6c4.7,4.8,8.1,10.2,10.3,16.2
		c2.2,6,3.4,12.6,3.5,19.6c-0.1,12.2-3.1,22.6-9.2,31.1c-6.1,8.5-14.7,14.9-26,19.4c-11.2,4.4-24.7,6.6-40.5,6.6
		c-16.2,0-30.3-2.4-42.4-7.2c-12-4.8-21.3-12.2-28-22.1c-6.6-10-9.9-22.8-10-38.4h48c0.3,5.7,1.7,10.5,4.3,14.4
		c2.5,3.9,6.1,6.8,10.7,8.8c4.7,2,10.2,3,16.6,3c5.4,0,9.9-0.7,13.5-2c3.6-1.3,6.4-3.2,8.3-5.5c1.9-2.4,2.8-5.1,2.9-8.1
		c-0.1-2.9-1-5.3-2.8-7.5c-1.8-2.2-4.7-4.1-8.7-5.8c-4.1-1.8-9.5-3.4-16.5-4.9l-18.6-4c-16.5-3.6-29.5-9.5-39-17.9
		C9.4,85.3,4.7,73.8,4.7,59.3c-0.1-11.8,3.1-22.2,9.5-31c6.4-8.9,15.3-15.9,26.6-20.8C52.2,2.5,65.3,0,80,0c15,0,28,2.5,39,7.5
		c11,5,19.4,12.1,25.4,21.3c6,9.1,9,19.7,9.1,31.9H105.1z"/>
	<rect x="176.1" y="76.7" class="st1" width="87.3" height="37.8"/>
	<g>
		<polygon class="st1" points="440.8,2.5 278.9,2.5 278.9,43.3 334.9,43.3 334.9,188.8 384.8,188.8 384.8,43.3 440.8,43.3 		"/>
		<path class="st1" d="M551.6,60.6c-5.6-4.2-12.3-7.4-20.3-9.7c-7.9-2.4-16.9-3.5-26.9-3.5c-13.9,0-25.5,2.2-34.7,6.5
			c-9.3,4.3-16.3,10.1-21.2,17.3c-4.8,7.2-7.5,15-8.1,23.5h46.2c0.6-4.3,2.4-7.5,5.4-9.5c3-2.1,6.9-3.2,11.7-3.2
			c4.4,0,7.9,1,10.7,2.9c2.8,1.9,4.2,4.7,4.2,8.4v0.4c0,2.7-1.1,4.8-3.2,6.5c-2.1,1.6-5.6,2.8-10.4,3.7c-4.7,0.8-11,1.6-18.8,2.2
			c-7.2,0.5-13.9,1.7-20.2,3.5c-6.2,1.8-11.6,4.5-16.3,7.9c-4.7,3.5-8.3,7.9-10.9,13.4c-2.6,5.4-3.9,11.9-3.9,19.6
			c0,9.3,1.9,16.9,5.8,22.9c3.9,6,9.2,10.5,16,13.5c6.8,2.9,14.7,4.4,23.6,4.4c6.1,0,11.6-0.7,16.6-2.2c5.1-1.5,9.6-3.8,13.6-7
			c4-3.2,7.4-7.4,10.2-12.6h1.1v19.6h46.9V93.1c0-6.5-1.5-12.5-4.5-18C561.5,69.5,557.2,64.7,551.6,60.6z M519,139.3
			c0,4.2-1.1,7.9-3.2,10.8c-2.1,3-4.9,5.2-8.3,6.8c-3.3,1.6-6.9,2.4-10.7,2.4c-4.2,0-7.7-1-10.5-3.1c-2.7-2.1-4.1-5-4.1-8.9
			c0-2.4,0.6-4.6,1.7-6.5c1.2-2,3-3.7,5.5-5c2.5-1.4,5.7-2.4,9.6-3c2-0.3,3.9-0.6,5.7-1c1.9-0.4,3.6-0.8,5.3-1.2
			c1.7-0.4,3.3-0.9,4.7-1.4c1.5-0.5,2.9-1,4.3-1.5V139.3z"/>
		<polygon class="st1" points="754.8,188.8 812.3,188.8 763.3,110.3 810.8,49.1 754.4,49.1 720.6,96 718.8,96 718.8,2.5 668.6,2.5 
			668.6,188.8 718.8,188.8 718.8,149.2 726.3,139.6 		"/>
		<rect x="592.8" y="2.5" class="st1" width="50.2" height="186.2"/>
	</g>
</g>
</svg>
