<?xml version="1.0" encoding="utf-8"?><!-- Generator: Adobe Illustrator 24.0.0, SVG Export Plug-In . SVG Version: 6.00 Build 0)  -->
<svg style="enable-background:new 0 0 353 107.7;" version="1.1" viewBox="0 0 353 107.7" x="0px"
    xmlns="http://www.w3.org/2000/svg" y="0px" xml:space="preserve">
    <g id="BACKGROUND">
</g>
    <g id="OBJECTS">
	<g>
		<g>
			<g>
				<path style="fill:#ffffff" class="st1" d="M138.9,34.1c4.1,0,7.4,3.3,7.4,7.4v56.8c0,4.1-3.3,7.4-7.4,7.4c-4.1,0-7.4-3.3-7.4-7.4V41.5
					C131.5,37.4,134.8,34.1,138.9,34.1 M138.9,32c-5.2,0-9.5,4.2-9.5,9.5v56.8c0,5.2,4.2,9.5,9.5,9.5c5.2,0,9.5-4.2,9.5-9.5V41.5
					C148.4,36.2,144.2,32,138.9,32L138.9,32z" />
			</g>
            <g>
				<path style="fill:#ffffff" class="st1" d="M138.9,2.1c5,0,9,4,9,9s-4,9-9,9s-9-4-9-9S134,2.1,138.9,2.1 M138.9,0c-6.1,0-11.1,5-11.1,11.1
					s5,11.1,11.1,11.1c6.1,0,11.1-5,11.1-11.1S145,0,138.9,0L138.9,0z" />
			</g>
		</g>
        <path style="fill:#ffffff" class="st1" d="M243.6,83.1c-11.2,8.9-37.4,9.3-51.3-4.6c-6.6-6.6-10.2-15.3-10.2-24.7c0-9.3,3.6-18.1,10.2-24.7
			c6.6-6.6,15.3-10.2,24.7-10.2s18.1,3.6,24.7,10.2c3.7,3.7,9.7,3.7,13.4,0c3.7-3.7,3.7-9.7,0-13.4c-21-21-55.1-21-76.1,0
			c-21,21-21,55.1,0,76.1c10.6,10.6,23.9,15.9,37.6,15.9c13.5,0,27.3,0,39.4-10.2c2.7-2.3,6.3-5.4,10.6-9V63.6
			C257,71.7,248.9,78.9,243.6,83.1z" />
        <path style="fill:#ffffff" class="st1" d="M350.7,3.3c-3.4-4-9.4-4.4-13.4-1c-0.4,0.3-16.4,14.1-37.6,32.4V9.5c0-5.2-4.2-9.5-9.5-9.5
			c-5.2,0-9.5,4.2-9.5,9.5V51v25v22.3c0,5.2,4.2,9.5,9.5,9.5c5.2,0,9.5-4.2,9.5-9.5V59.7c25.5-21.9,49.5-42.6,50-43
			C353.7,13.3,354.1,7.3,350.7,3.3z" />
        <g>
			<path style="fill:#ffffff" class="st1" d="M17.7,5C15.3,0.4,9.5-1.3,5,1.2C0.4,3.6-1.3,9.4,1.1,14L49,102.8c1.6,3.1,4.8,5,8.3,5c3.5,0,6.7-1.9,8.3-5
				l2.4-4.4L17.7,5z" />
            <path style="fill:#ffffff" class="st1"
                d="M109.3,1.2C104.7-1.3,99,0.4,96.5,5L62,69l10.7,19.9L113.1,14C115.6,9.4,113.9,3.6,109.3,1.2z" />
		</g>
        <path style="fill:#ffffff" class="st1" d="M350.5,91.7l-31-35.8l-14.4,12.4l31.4,36.2c1.9,2.2,4.5,3.3,7.2,3.3c2.2,0,4.4-0.8,6.2-2.3
			C353.9,101.9,354,95.7,350.5,91.7z" />
	</g>
</g>
</svg>
