<svg width="130" height="42" viewBox="0 0 130 42" fill="none" xmlns="http://www.w3.org/2000/svg">
<path d="M51.1522 41.5C49.2199 41.5 47.6616 39.9545 47.6616 38.038V17.2969C47.6616 15.3804 49.2199 13.8349 51.1522 13.8349C53.0845 13.8349 54.6428 15.3804 54.6428 17.2969V38.038C54.6428 39.9545 53.0845 41.5 51.1522 41.5Z" fill="#251F9B"/>
<path d="M54.0323 9.05971C55.6267 7.47837 55.6267 4.91451 54.0323 3.33318C52.4379 1.75184 49.8529 1.75184 48.2585 3.33318C46.6641 4.91452 46.6641 7.47837 48.2585 9.05971C49.8529 10.641 52.4379 10.641 54.0323 9.05971Z" fill="#251F9B"/>
<path d="M89.7041 32.505C85.5902 35.7506 75.8976 35.9052 70.7864 30.8049C68.3555 28.3938 67.0153 25.21 67.0153 21.8099C67.0153 18.4097 68.3555 15.2259 70.7864 12.8148C73.2174 10.4038 76.4274 9.07462 79.8557 9.07462C83.2839 9.07462 86.5252 10.4038 88.925 12.8148C90.2963 14.1749 92.509 14.1749 93.8492 12.8148C95.2205 11.4547 95.2205 9.26008 93.8492 7.93092C86.12 0.265051 73.5602 0.265051 65.831 7.93092C58.1019 15.5968 58.1019 28.0538 65.831 35.7197C69.7268 39.5835 74.6198 41.5 79.6687 41.5C84.6241 41.5 89.7353 41.5309 94.192 37.7907C95.1893 36.9561 96.5294 35.8124 98.0877 34.5142V25.3955C94.6283 28.3629 91.6364 30.9903 89.7041 32.505Z" fill="#FF9500"/>
<path d="M129.161 3.35612C127.914 1.90332 125.701 1.74876 124.236 2.98519C124.112 3.10884 118.19 8.14729 110.399 14.7931V5.61261C110.399 3.69614 108.84 2.1506 106.908 2.1506C104.976 2.1506 103.417 3.69614 103.417 5.61261V20.7898V29.9085V38.0689C103.417 39.9854 104.976 41.5309 106.908 41.5309C108.84 41.5309 110.399 39.9854 110.399 38.0689V23.9427C119.78 15.9368 128.631 8.36367 128.787 8.24003C130.251 7.00359 130.407 4.80893 129.161 3.35612Z" fill="#FF9500"/>
<path d="M6.52272 3.97434C5.58774 2.30516 3.49963 1.68695 1.81667 2.58336C0.133709 3.47977 -0.489609 5.5817 0.414202 7.25088L18.0541 39.7072C18.6463 40.82 19.8306 41.5309 21.1084 41.5309C22.3862 41.5309 23.5705 40.8509 24.1626 39.7072L25.0353 38.0998L6.52272 3.97434Z" fill="#FF9500"/>
<path d="M40.2133 2.58336C38.5304 1.68695 36.4422 2.30516 35.5073 3.97434L22.8228 27.3429L26.7808 34.6069L41.647 7.25088C42.5508 5.5817 41.9274 3.47977 40.2133 2.58336Z" fill="#FF9500"/>
<path d="M129.067 35.627L117.629 22.5517L112.331 27.0647L123.894 40.2945C124.579 41.0982 125.545 41.5 126.543 41.5C127.353 41.5 128.163 41.2218 128.818 40.6654C130.314 39.3981 130.345 37.1107 129.067 35.627Z" fill="#FF9500"/>
</svg>
